<svg width="83" height="54" viewBox="0 0 83 54" fill="none" xmlns="http://www.w3.org/2000/svg">
    <path d="M15.7044 14.3687L7.26231 40.1001H0.461729L11.995 9.06043H16.3227L15.7044 14.3687ZM22.7182 40.1001L14.2548 14.3687L13.5726 9.06043H17.9429L29.5401 40.1001H22.7182ZM22.3345 28.5455V33.5553H5.94057V28.5455H22.3345ZM47.9985 29.0358H40.0893V24.0473H47.9985C49.2207 24.0473 50.2156 23.8483 50.983 23.4504C51.7505 23.0382 52.3119 22.4697 52.6672 21.7449C53.0225 21.0201 53.2002 20.2029 53.2002 19.2933C53.2002 18.3695 53.0225 17.5096 52.6672 16.7138C52.3119 15.9179 51.7505 15.2783 50.983 14.7951C50.2156 14.3119 49.2207 14.0703 47.9985 14.0703H42.3064V40.1001H35.9109V9.06043H47.9985C50.4288 9.06043 52.5109 9.50101 54.2448 10.3822C55.9929 11.2491 57.3288 12.4501 58.2526 13.985C59.1764 15.5199 59.6383 17.2751 59.6383 19.2507C59.6383 21.2546 59.1764 22.9885 58.2526 24.4524C57.3288 25.9162 55.9929 27.0461 54.2448 27.842C52.5109 28.6379 50.4288 29.0358 47.9985 29.0358ZM74.3447 9.06043V40.1001H67.9704V9.06043H74.3447Z" fill="#00FFAB"/>
    </svg>
    