<svg width="96" height="96" viewBox="0 0 96 96" fill="none" xmlns="http://www.w3.org/2000/svg">
    <g filter="url(#filter0_d_42_60309)">
    <path d="M50.2373 76.6084C50.2578 76.593 50.2681 76.5827 50.2373 76.6084V76.6084Z" fill="#6600FF"/>
    <path d="M46.3626 24.7621C46.3474 27.1486 46.3323 29.5351 46.312 31.9167C46.312 32.2355 46.8183 32.2355 46.8183 31.9167C46.8335 29.5301 46.8487 27.1436 46.8689 24.7621C46.874 24.4432 46.3677 24.4432 46.3626 24.7621Z" fill="#00FFAB"/>
    <path d="M30.4212 47.5531C30.3908 52.4704 33.0083 57.1435 36.8914 60.1527C38.8254 61.6523 41.0834 62.7682 43.4933 63.2914C45.9183 63.8145 48.4396 63.7148 50.814 63.0074C55.5477 61.6024 59.5777 58.0004 61.5319 53.5415C62.5091 51.3096 62.9647 48.8634 62.7369 46.4321C62.5091 44.0109 61.6535 41.6743 60.3371 39.6267C57.7045 35.5215 53.2644 32.4874 48.3333 31.8796C47.7156 31.8049 47.0929 31.77 46.4702 31.77C46.1462 31.77 46.1462 32.2682 46.4702 32.2682C51.3153 32.2433 55.8819 34.7443 58.8588 38.431C60.3574 40.2843 61.4509 42.4664 61.9673 44.7781C62.4787 47.0748 62.3673 49.4662 61.6737 51.7181C60.2865 56.2318 56.7375 60.0431 52.3582 61.9263C50.1458 62.8729 47.7106 63.2963 45.3057 63.0721C42.9364 62.8529 40.648 62.0209 38.6482 60.7705C34.6182 58.2645 31.5907 53.9999 31.0236 49.2968C30.9528 48.7189 30.9224 48.136 30.9274 47.5481C30.9325 47.2293 30.4262 47.2293 30.4212 47.5531Z" fill="#00FFAB"/>
    <path d="M23.0977 47.9919C23.128 51.5491 24.1153 55.0514 25.8164 58.1802C27.5276 61.3188 29.9425 64.0839 32.8081 66.2561C35.6685 68.4232 39.0049 70.0125 42.5438 70.7299C46.0979 71.4523 49.7836 71.253 53.2415 70.1819C56.674 69.1207 59.8332 67.2574 62.481 64.871C65.1491 62.4647 67.316 59.5054 68.7234 56.2222C70.1309 52.944 70.7637 49.352 70.4043 45.8048C70.0448 42.2725 68.7639 38.8648 66.8198 35.8806C64.8656 32.8814 62.2633 30.2907 59.2358 28.3328C56.2386 26.3948 52.8111 25.0895 49.2419 24.666C48.3559 24.5614 47.4699 24.5115 46.5788 24.5215C46.2548 24.5215 46.2548 25.0197 46.5788 25.0197C50.1228 24.9948 53.6211 25.8866 56.7601 27.4858C59.9091 29.09 62.6886 31.3619 64.896 34.087C67.0983 36.8022 68.7184 39.9907 69.498 43.3835C70.2777 46.7812 70.1309 50.3135 69.1335 53.6515C68.1311 56.9944 66.3237 60.0833 63.9745 62.6789C61.6203 65.2795 58.7244 67.4069 55.4893 68.8218C52.2542 70.2367 48.69 70.8893 45.1613 70.6054C41.6527 70.3214 38.2556 69.1356 35.2686 67.3222C32.2461 65.4938 29.6185 63.0227 27.6238 60.1381C25.6442 57.2734 24.2722 53.9903 23.7963 50.5477C23.6799 49.7007 23.6191 48.8488 23.6141 47.9969C23.6039 47.673 23.0977 47.673 23.0977 47.9919Z" fill="#00FFAB"/>
    <path d="M23.4026 48.2066C25.8076 48.0571 28.2125 47.9027 30.6124 47.7532C30.9364 47.7333 30.9364 47.235 30.6124 47.255C28.2075 47.4044 25.8025 47.5589 23.4026 47.7084C23.0786 47.7283 23.0735 48.2265 23.4026 48.2066Z" fill="#00FFAB"/>
    <path d="M56.5891 59.7649C56.5829 59.7711 56.5829 59.7711 56.5767 59.7711C56.5829 59.7711 56.5891 59.7649 56.5891 59.7649Z" fill="#00FFAB"/>
    <path d="M56.5796 59.7673C56.5907 59.7561 56.6019 59.7505 56.5852 59.7617C56.5852 59.7617 56.5852 59.7617 56.5796 59.7673Z" fill="#00FFAB"/>
    <path d="M69.0855 41.8502C69.0247 41.5662 68.8982 41.2922 68.8627 40.9983C68.7463 40.6545 68.6855 40.4951 68.6045 40.1314C68.5741 40.0367 68.4678 39.8275 68.4577 39.8026C68.3818 39.6083 68.2855 39.2296 68.1185 39.0104C67.7185 38.3229 67.4502 37.5457 66.9439 36.923C66.868 36.8283 66.9945 36.9827 66.9945 36.9877C66.8579 36.7984 66.7313 36.5991 66.6148 36.3949C66.468 36.1806 66.3009 35.9814 66.1237 35.7871C66.1845 35.8469 66.2503 35.9017 66.3212 35.9565C66.1896 35.7871 66.0984 35.6177 66.0174 35.4483C66.0174 35.3586 65.982 35.259 65.9162 35.1693C65.9162 35.1693 65.9212 35.1743 65.9212 35.1693C65.8959 35.1245 65.8706 35.0796 65.8402 35.0348C65.7542 34.8803 65.6175 34.711 65.4605 34.5466C65.3339 34.3971 65.2023 34.0583 65.0656 33.8491C64.8479 33.5003 64.5847 33.2213 64.1796 32.7979C63.8556 32.469 63.4759 32.205 63.0962 31.9858C63.1063 31.936 63.081 31.8811 63.0253 31.8513C63.0152 31.8463 62.9949 31.8313 62.9696 31.8114C62.8684 31.7168 62.7621 31.6221 62.6659 31.5573C62.6001 31.4926 62.5342 31.4677 62.4937 31.4726C62.433 31.4228 62.3722 31.378 62.3064 31.3281C62.5849 30.9744 61.9976 30.6207 61.3293 30.3666C61.2685 30.3168 61.2027 30.2719 61.1318 30.2321C61.0205 30.1823 60.9091 30.1325 60.7977 30.0826C60.3168 29.435 59.7953 29.1211 59.1979 28.6827C58.2612 28.0251 57.2993 27.5269 56.1906 27.1981C55.7754 26.7696 55.1679 26.6102 54.5958 26.4906C54.4692 26.4458 54.3477 26.4109 54.2313 26.376C54.2211 26.371 54.2161 26.3611 54.206 26.3561C54.2414 26.371 54.2819 26.376 54.3173 26.391C54.2971 26.371 54.2667 26.3561 54.2414 26.3411C54.2617 26.3411 54.2819 26.3461 54.2971 26.3461C54.2667 26.3312 54.2313 26.3262 54.1958 26.3162C54.1908 26.3112 54.1857 26.3062 54.1807 26.3062C54.2161 26.3162 54.2515 26.3162 54.292 26.3312C53.9174 26.0422 53.4061 25.8629 53.0112 25.7234C52.4593 25.4693 51.9378 25.4294 51.2999 25.3946C51.224 25.3995 51.143 25.4095 51.062 25.4145C51.062 25.3397 51.0367 25.27 50.9708 25.2252C50.9202 25.2002 50.8645 25.1903 50.8038 25.1803C50.824 25.1803 50.8291 25.1753 50.8139 25.1753C50.581 25.1255 50.5608 25.1305 50.4342 25.1156C50.1557 25.0807 49.8368 24.9561 49.5634 25.0607C49.4773 25.0308 49.3811 25.0159 49.3001 24.986C49.0571 24.9362 48.7787 24.8963 48.5255 24.9362C48.5205 24.9362 48.5154 24.9312 48.5103 24.9312C48.4547 24.9113 48.3888 24.9263 48.3433 24.9661C48.3382 24.9711 48.3382 24.9711 48.3382 24.9761C48.0496 24.7319 47.6446 24.6971 47.3054 24.8266C47.1485 24.6572 46.9561 24.5078 46.7232 24.5576C46.4295 24.6871 46.4144 24.8814 46.5156 25.0807C46.4042 25.2152 46.3941 25.4394 46.5409 25.5689C46.5814 25.6088 46.627 25.6437 46.6675 25.6785C46.6675 25.6985 46.6675 25.7134 46.6675 25.7333C46.6675 25.7433 46.6675 25.7533 46.6675 25.7582C46.6675 25.7782 46.6675 25.7981 46.6726 25.818C46.6776 25.8629 46.6776 25.9027 46.6827 25.9476C46.6878 25.9824 46.6878 26.0173 46.6878 26.0522C46.627 26.1867 46.6219 26.361 46.6472 26.5553C46.6574 27.0336 46.6624 27.5069 46.6624 27.9852C46.6827 28.1397 46.6675 28.324 46.7282 28.4635C46.7333 28.4984 46.7333 28.5282 46.7434 28.5631C46.7485 28.5831 46.7586 28.598 46.7637 28.6129C46.632 29.1809 46.6017 29.4698 46.4498 30.0229C46.3536 30.3417 46.308 30.6606 46.2777 30.9894C46.1967 31.1737 46.1916 31.383 46.2119 31.5822C46.2169 31.642 46.227 31.7068 46.2372 31.7666C46.2372 31.7716 46.2372 31.7815 46.2422 31.7865C46.2422 31.7915 46.2473 31.7965 46.2473 31.8014C46.2979 31.9957 46.4093 32.1651 46.6169 32.2399C46.8498 32.3545 47.1484 32.2797 47.3256 32.0954C47.4522 32.1103 47.5687 32.0705 47.6699 31.9958C47.7307 31.9858 47.7864 31.9659 47.8421 31.931C47.9686 31.9459 48.0901 31.9609 48.1812 31.9659C48.9508 32.2 49.7305 32.3594 50.4494 32.6633C51.5581 33.0171 52.2264 33.2911 53.1276 33.6199C53.7908 33.9039 54.5047 34.0633 55.1476 34.3871C55.7906 34.9401 56.4133 35.3786 57.0512 35.9266C57.0664 35.9415 57.0766 35.9615 57.0968 35.9814C57.188 36.1209 57.2943 36.2454 57.4006 36.3301C57.4107 36.3401 57.4208 36.3451 57.431 36.355C57.436 36.36 57.4411 36.365 57.4462 36.37C57.4512 36.37 57.4512 36.3749 57.4512 36.37C57.4613 36.3749 57.4715 36.3799 57.4765 36.3849C57.4765 36.3949 57.4715 36.3999 57.4715 36.4098C57.4867 36.4945 57.5271 36.5643 57.5778 36.629C57.5778 36.629 57.5778 36.629 57.5778 36.634C57.593 36.6589 57.6436 36.7187 57.7094 36.7935C57.6892 36.7835 57.6689 36.7735 57.6487 36.7685C57.6841 36.7884 57.7145 36.8184 57.7499 36.8433C57.8714 36.9778 58.0334 37.1522 58.1954 37.2966C58.3169 37.4212 58.4334 37.5358 58.5549 37.6254C58.565 37.6354 58.5752 37.6454 58.5853 37.6553C58.5853 37.6553 58.5802 37.6504 58.5903 37.6603C58.6207 37.6852 58.6561 37.7052 58.6967 37.7002C58.7372 37.6952 58.7675 37.6703 58.7827 37.6404C58.8232 37.6902 58.8637 37.75 58.9042 37.7998C59.3447 38.4674 59.4763 38.7863 59.8965 39.3293C59.8763 39.3044 59.8763 39.3094 59.9016 39.3443C59.9218 39.3791 59.9269 39.3991 59.932 39.404C59.937 39.419 59.9472 39.4439 59.9623 39.4738C60.0636 39.7628 60.2459 40.0069 60.3826 40.2809C60.4383 40.5001 60.5749 40.6794 60.6813 40.8737C60.7623 41.1228 60.9192 41.3819 61.0407 41.5712C61.147 41.8901 61.3698 42.1392 61.5014 42.4431C61.7343 42.8665 61.9672 43.285 62.2001 43.7085C62.3722 44.5106 62.4887 45.2779 62.5697 45.9405C62.6304 46.3639 62.7013 46.8522 62.7317 47.3902C62.7317 47.4351 62.7367 47.4799 62.7367 47.5247C62.7165 47.5198 62.6963 47.5198 62.6659 47.5397C62.6507 47.5696 62.6507 47.5995 62.6507 47.6294C62.6406 47.6543 62.6355 47.6891 62.6355 47.734C62.6051 47.7689 62.5798 47.8237 62.5646 47.8884C62.5596 47.8884 62.5545 47.8885 62.5494 47.8835C62.5494 47.9084 62.5494 47.9283 62.5443 47.9532C62.514 48.1076 62.514 48.3219 62.5292 48.5411C62.5292 48.6507 62.5292 48.7603 62.5342 48.8649C62.5342 48.8799 62.5393 48.8848 62.5393 48.8948C62.5393 48.9347 62.5342 48.9795 62.5393 49.0194C62.5494 49.0493 62.5646 49.0742 62.5798 49.0941C62.5849 49.124 62.5849 49.1489 62.5899 49.1788C62.5393 49.3831 62.5039 49.5773 62.4887 49.7318C62.4431 49.8514 62.3925 50.1901 62.3975 50.3894C62.3672 50.5987 62.3317 50.8827 62.2963 51.1766C62.2862 51.1567 62.271 51.1417 62.2457 51.1317C62.0735 51.0969 62.0482 51.3111 62.0381 51.5004C62.033 51.5054 62.028 51.5054 62.0229 51.5104C61.9571 51.6549 61.9571 51.7694 61.9875 51.8541C61.9824 51.8591 61.9773 51.8591 61.9723 51.8641C61.623 52.2427 61.5875 52.7609 61.466 53.2392C61.4053 53.3488 61.3344 53.4633 61.2533 53.5829C61.1065 53.8818 61.0205 54.1708 60.7218 54.6142C60.6205 54.8334 60.4788 55.1174 60.3826 55.3067C60.1699 55.5159 60.0383 55.765 59.9168 56.0291C59.9117 56.0341 59.9067 56.039 59.9016 56.044C59.8459 56.1138 59.8307 56.1935 59.8307 56.2682C59.6586 56.4476 59.4966 56.6269 59.3801 56.7714C59.2535 56.881 58.646 57.6283 58.3018 57.9571C58.0739 58.276 57.7955 58.4653 57.5373 58.7941C57.2436 59.0781 56.9804 59.382 56.6918 59.666C56.6563 59.6759 56.626 59.6959 56.5956 59.7158C56.5956 59.7108 56.5905 59.7058 56.5905 59.7058C56.5754 59.7158 56.5602 59.7307 56.545 59.7407L56.5399 59.7457C56.4488 59.8005 56.3627 59.8652 56.2767 59.945C56.1197 60.0496 55.9577 60.1443 55.7754 60.3336C55.7552 60.3734 55.7501 60.4133 55.7552 60.4432C55.502 60.5478 55.2489 60.6624 55.011 60.8019C54.3984 61.1058 53.8769 61.5392 53.3251 61.9328C53.2592 61.9577 53.1934 61.9776 53.1327 62.0125C52.8593 62.0524 52.4795 62.2317 52.1657 62.3264C52.0441 62.3862 51.9024 62.4211 51.8011 62.5157C51.7758 62.5406 51.7606 62.5755 51.7556 62.6054C51.0367 62.715 50.2772 62.8146 49.6039 62.8595C49.052 62.8894 48.48 62.8894 47.9382 62.9143C47.7965 62.8993 47.6446 62.9143 47.4927 62.9442C47.1687 62.9691 46.8599 63.0139 46.5814 63.0836C46.5764 63.0836 46.5764 63.0836 46.5814 63.0836C46.4751 63.1135 46.3688 63.1434 46.2726 63.1833C46.06 63.2331 45.8473 63.2879 45.6347 63.3128C45.6549 63.3128 45.4777 63.3327 45.3815 63.3377C45.2955 63.3278 45.2094 63.3477 45.1487 63.4075C45.1385 63.4224 45.1385 63.4374 45.1284 63.4523C45.1284 63.4523 45.1284 63.4523 45.1233 63.4523C43.8121 63.2232 42.5768 62.705 41.2554 62.5306C41.225 62.5306 41.1946 62.5207 41.1693 62.5157C41.1693 62.4659 41.1541 62.4111 41.1086 62.3862C41.0782 62.3712 41.0529 62.3662 41.0225 62.3563C41.0023 62.3364 40.9668 62.3214 40.9111 62.3114C40.744 62.2367 40.582 62.152 40.42 62.0773C40.42 62.0773 40.42 62.0773 40.42 62.0823C40.3542 62.0574 40.2884 62.0524 40.2276 62.0922C40.2175 62.1022 40.2175 62.1072 40.2074 62.1171C39.3113 61.2702 38.8252 60.8069 37.6861 60.1642C37.514 60.0446 37.3317 59.95 37.1444 59.8653C36.8103 59.5614 36.4812 59.2724 36.2635 59.0482C36.0762 58.7543 35.8028 58.4852 35.4737 58.55C35.4028 58.54 35.3319 58.555 35.2762 58.5948C35.2712 58.5899 35.2661 58.5799 35.2611 58.5749C34.7042 57.703 33.97 56.9707 33.2207 56.2583C33.2157 56.2433 33.2056 56.2284 33.2005 56.2134C33.1752 56.1437 33.1448 56.0739 33.1043 56.0092C33.0638 55.9444 33.0132 55.8846 32.9727 55.8199C32.9727 55.8199 32.9727 55.8199 32.9676 55.8199C32.9625 55.8149 32.9575 55.8049 32.9524 55.7999C32.9474 55.7899 32.9423 55.785 32.9372 55.775C32.9372 55.78 32.9423 55.7899 32.9423 55.7949C32.9221 55.785 32.9069 55.785 32.8866 55.7949C32.7347 55.4561 32.5677 55.1273 32.35 54.8234C32.3398 54.8035 32.3348 54.7786 32.3297 54.7587C32.2841 54.6541 32.2335 54.5644 32.188 54.4697C32.1677 54.3003 32.0816 54.1459 31.9854 53.9914C31.9652 53.9366 31.9399 53.8818 31.9145 53.8121C31.874 53.7075 31.8184 53.558 31.7019 53.5182C31.707 53.4185 31.6817 53.3089 31.631 53.1295C31.4994 52.9053 31.4184 52.1232 31.1349 52.0086C31.0589 51.7744 31.0438 51.5154 30.9526 51.2862C30.9628 51.2762 30.9729 51.2712 30.983 51.2563C31.0033 51.0421 30.9324 50.8527 30.8514 50.6684C30.8109 50.5488 30.7704 50.4293 30.7349 50.3097C30.7198 50.2649 30.6995 50.2051 30.6641 50.1752C30.659 50.1602 30.6539 50.1503 30.6539 50.1353C30.6539 50.1453 30.6539 50.1602 30.6539 50.1702C30.6539 50.1702 30.6489 50.1702 30.6438 50.1652C30.6691 49.7866 30.6894 49.403 30.6995 49.0243C30.7096 49.0194 30.7197 49.0144 30.7248 49.0094C30.8818 48.8549 30.8818 48.6208 30.897 48.4116C30.9273 48.1226 31.0033 47.744 30.7248 47.5497C30.4919 47.3703 30.2287 47.4301 30.0616 47.5945C30.0464 47.6045 30.0262 47.6094 30.011 47.6194C29.9097 47.6393 29.8085 47.6792 29.7528 47.739C29.5502 47.7091 29.3528 47.6941 29.1452 47.734C28.9984 47.7489 28.806 47.7639 28.6136 47.7988C28.4516 47.6692 28.2339 47.5795 28.0314 47.5447C27.8036 47.5596 27.8188 47.744 27.9301 47.8685C27.8339 47.8635 27.7378 47.8536 27.6517 47.8436C27.6821 47.8635 27.7175 47.8785 27.753 47.8934C27.6922 47.8984 27.6315 47.8934 27.5707 47.9034C27.3074 47.8835 27.0391 47.8685 26.7657 47.8685C26.7606 47.8735 26.7606 47.8785 26.7606 47.8785C26.7556 47.8735 26.7404 47.8685 26.6695 47.8585C26.4063 47.8187 26.1379 47.8187 25.8696 47.8286C25.4697 47.8536 25.0444 47.9432 24.5989 48.013C24.4166 47.9582 24.1989 47.9881 23.9913 48.023C23.9913 48.008 23.9913 47.993 23.9913 47.9781C23.9508 47.8685 23.7837 47.8585 23.728 47.9582C23.7179 47.9831 23.7179 48.008 23.7129 48.0329C23.6825 48.0379 23.6521 48.0279 23.6217 48.0379C23.5914 48.0479 23.561 48.0678 23.5407 48.0927C23.5306 48.0977 23.5205 48.0977 23.5103 48.1027C23.4749 48.1226 23.4496 48.1525 23.4243 48.1824C23.3332 48.3069 23.3585 48.4913 23.5053 48.571C23.5154 48.5759 23.5205 48.576 23.5306 48.576C23.5458 48.6357 23.5762 48.6856 23.6065 48.7404C23.5711 48.7254 23.5357 48.7204 23.5053 48.7304C23.4445 48.7653 23.4648 48.85 23.4901 48.8998C23.5255 48.9745 23.5762 49.0343 23.6217 49.0991C23.6217 49.1439 23.6167 49.1937 23.6116 49.2286C23.647 49.9908 23.7179 50.9225 23.8698 51.6C24.0571 52.4869 24.3052 53.3986 24.6697 54.2555C24.7153 54.6989 24.9178 55.1622 25.0849 55.5359C25.2367 55.9095 25.3886 56.2184 25.6013 56.622C25.6924 56.7963 25.7835 56.9657 25.8747 57.1351C25.8291 57.0753 25.7836 57.0155 25.743 56.9557C25.8443 57.3194 25.9861 57.6682 26.1784 57.992C26.2291 58.1265 26.3253 58.3408 26.4366 58.4952C26.6088 58.8639 26.9682 59.5414 27.2568 59.8653C27.6973 60.5677 28.2036 61.1855 28.8364 61.7335C28.9073 62.1271 29.125 62.4609 29.449 62.7C29.7983 63.0488 30.1881 63.3527 30.5982 63.6317C30.8109 64.0801 31.2412 64.4886 31.5753 64.7377C31.9247 65.0366 32.4917 65.4551 33.0689 65.7889C33.4688 66.3369 34.3244 66.9248 34.5877 67.144C35.5294 67.8365 36.6229 68.3646 37.7722 68.6087C37.9342 68.7682 38.1418 68.8379 38.3595 68.8728C38.7291 69.1169 39.1543 69.2365 39.5644 69.3809C39.8581 69.5105 40.2985 69.6849 40.6732 69.7994C41.463 70.1083 42.2882 70.2777 43.1337 70.3524C43.2299 70.3674 43.4881 70.4073 43.5792 70.4222C43.8779 70.4571 44.1766 70.472 44.4753 70.472C44.9107 70.6613 45.4119 70.6813 45.8524 70.761C46.9713 71.0599 49.0419 70.9353 49.7102 70.8606C50.6975 70.766 52.3176 70.188 52.8188 69.9838C53.158 69.8443 53.4871 69.6898 53.7959 69.5254C53.8769 69.635 54.0035 69.7148 54.1503 69.7098C54.2769 69.6898 54.4085 69.645 54.5401 69.5852C54.5502 69.5802 54.5603 69.5752 54.5705 69.5703C54.8185 69.4607 55.0869 69.3162 55.4008 69.1966C56.1653 68.8927 56.8943 68.4394 57.598 67.9959C57.7246 67.8913 57.8664 67.7867 58.0081 67.6871C58.1195 67.6821 58.2562 67.6123 58.3676 67.4928C58.3979 67.4778 58.4283 67.4629 58.4587 67.4479C58.7017 67.3283 58.9802 67.2088 59.1624 67.0145C59.2181 66.9298 59.2181 66.8351 59.1878 66.7504C59.1979 66.7405 59.2029 66.7255 59.2131 66.7106C59.6535 66.4764 60.0687 66.2074 60.4534 65.8935C60.7977 65.6295 61.1015 65.3604 61.3901 65.0765C61.5217 65.1412 61.6888 65.1462 61.8356 65.0416C62.1292 64.8672 62.3368 64.5932 62.595 64.369C62.6051 64.359 62.6152 64.3491 62.6203 64.3391C62.7671 64.2295 62.914 64.105 63.081 63.8907C63.0861 63.8808 63.0962 63.8658 63.1063 63.8559C63.1722 63.7911 63.238 63.7164 63.3139 63.6616C63.4253 63.6367 63.8961 63.0986 64.21 62.7349C64.3568 62.5257 64.61 62.2268 64.6403 61.9577C65.2428 61.5641 65.8453 61.0161 66.2351 60.3236C66.4984 60.0396 66.787 59.7307 66.8882 59.3571C66.9743 59.2026 67.035 59.0482 67.0553 58.8987C67.0705 58.8888 67.0857 58.8788 67.0958 58.8689C67.4502 58.5251 67.5363 58.0219 67.6325 57.5486C67.6527 57.5187 67.673 57.4888 67.6983 57.4639C67.8249 57.2945 68.0375 57.1002 68.1742 56.9109C68.4526 56.5472 68.7007 55.9245 68.7716 55.7351C68.9285 55.3814 69.1513 54.9829 69.2576 54.7238C69.374 54.4647 69.3437 54.1508 69.207 53.9267C69.3589 53.8071 69.4297 53.5231 69.3538 53.3338C69.3589 53.284 69.3538 53.2292 69.3487 53.1744C69.3639 53.0648 69.369 52.9103 69.3487 52.7758C69.45 52.5715 69.5057 52.3523 69.5563 52.1331C69.6474 51.8392 69.7791 51.5552 69.8095 51.2463C70.1031 50.2001 70.2398 49.0941 70.3259 48.5112C70.5739 45.6067 70.4727 43.8978 69.0855 41.8502Z" fill="#00FFAB"/>
    <path d="M57.4562 36.3984C57.4366 36.3787 57.4432 36.3853 57.4562 36.3984V36.3984Z" fill="#00FFAB"/>
    <path d="M46.9171 50.2917L43.3604 53.8484L47.0717 57.5598L50.6285 54.003L46.9171 50.2917Z" fill="#E5E900"/>
    <path d="M40.7091 46.6924L40.5936 44.1157H38.7677L38.7543 46.7946L36.0532 46.728L36.1288 48.5939L38.7543 48.6427L38.8076 51.2328L40.5936 51.295L40.6558 48.6561L43.2058 48.6028L43.3213 46.7191L40.7091 46.6924Z" fill="#E5E900"/>
    <path d="M46.8145 44.2945C48.4201 44.2945 49.7217 42.972 49.7217 41.3407C49.7217 39.7094 48.4201 38.387 46.8145 38.387C45.2088 38.387 43.9072 39.7094 43.9072 41.3407C43.9072 42.972 45.2088 44.2945 46.8145 44.2945Z" fill="#E5E900"/>
    <path d="M57.1929 47.9174L51.3784 44.6262V51.2087L57.1929 47.9174Z" fill="#E5E900"/>
    <path d="M46.7253 24.4854C43.5358 24.4854 40.3793 25.1256 37.447 26.3674C34.5147 27.6093 31.8675 29.4268 29.6656 31.7101C27.4637 33.9934 25.7528 36.695 24.6364 39.6514C23.5201 42.6078 23.0215 45.7575 23.1709 48.9101L31.0425 48.5449C30.943 46.4459 31.275 44.3488 32.0183 42.3804C32.7615 40.412 33.9007 38.6132 35.3667 37.093C36.8328 35.5727 38.5954 34.3626 40.5477 33.5358C42.5001 32.709 44.6017 32.2826 46.7253 32.2826V24.4854Z" fill="#E5E900"/>
    <path d="M82 47C82 39.3313 79.4813 31.8748 74.8312 25.7768C70.181 19.6788 63.6568 15.2768 56.2614 13.2476C48.866 11.2183 41.0088 11.6742 33.8977 14.545C26.7866 17.4158 20.8151 22.5427 16.9013 29.1375C12.9875 35.7323 11.348 43.43 12.2348 51.0473C13.1216 58.6646 16.4856 65.7799 21.8098 71.2992C27.1339 76.8186 34.1234 80.4365 41.7038 81.597C49.2843 82.7574 57.036 81.396 63.7675 77.7222L60.2508 71.2787C54.9311 74.1821 48.8052 75.2579 42.8146 74.3409C36.824 73.4238 31.3005 70.5646 27.093 66.2029C22.8855 61.8411 20.227 56.2182 19.5262 50.1985C18.8254 44.1788 20.1211 38.0955 23.214 32.8838C26.3069 27.6722 31.026 23.6206 36.6457 21.3518C42.2654 19.0831 48.4746 18.7229 54.319 20.3266C60.1633 21.9302 65.3192 25.4089 68.9941 30.228C72.6689 35.047 74.6594 40.9396 74.6594 47H82Z" fill="#6600FF"/>
    </g>
    <defs>
    <filter id="filter0_d_42_60309" x="0.826923" y="0.826923" width="95.0385" height="95.0385" filterUnits="userSpaceOnUse" color-interpolation-filters="sRGB">
    <feFlood flood-opacity="0" result="BackgroundImageFix"/>
    <feColorMatrix in="SourceAlpha" type="matrix" values="0 0 0 0 0 0 0 0 0 0 0 0 0 0 0 0 0 0 127 0" result="hardAlpha"/>
    <feOffset dx="1.34615" dy="1.34615"/>
    <feGaussianBlur stdDeviation="6.25962"/>
    <feComposite in2="hardAlpha" operator="out"/>
    <feColorMatrix type="matrix" values="0 0 0 0 0 0 0 0 0 0 0 0 0 0 0 0 0 0 0.74 0"/>
    <feBlend mode="normal" in2="BackgroundImageFix" result="effect1_dropShadow_42_60309"/>
    <feBlend mode="normal" in="SourceGraphic" in2="effect1_dropShadow_42_60309" result="shape"/>
    </filter>
    </defs>
    </svg>
    